<svg xmlns="http://www.w3.org/2000/svg" viewBox="0 0 347 173"><g fill="none"><path fill="#60A24F" d="M106.6 87c0 11-9 19.9-20 19.9H20.1c-11 0-20-9-20-20V20.4c0-11 9-19.9 20-19.9h66.5c11 0 20 9 20 20v66.4z"/><path fill="#FFF" d="M36.5 34.9h7.6v21.8l20.7-21.8h9.4L56.1 53.6 75 78.3h-9.3L50.9 58.8l-6.8 6.9v12.6h-7.6z"/><path fill="#414456" d="M227.5 87.5c0 11-8.9 20-20 20H141c-11 0-20-9-20-20V20.8c0-11 9-20 20-20h66.6c11 0 20 9 20 20v66.7z"/><path fill="#FFF" d="M154 35.3h8.1L175.4 56l13.2-20.6h8.2V79h-7.7V47.6l-13.7 20.5h-.3l-13.6-20.4V79H154z"/><path fill="#6EACC2" d="M346.7 87.5c0 11-9 20-20 20h-66.4c-11 0-20-9-20-20V20.8c0-11 9-20 20-20h66.5c11 0 20 9 20 20v66.7z"/><path fill="#FFF" d="M300.7 61.6l-7.5-17.4-7.5 17.4h15zm-11-26.6h7.2l19 43.9h-8l-4.4-10.5H283l-4.5 10.5h-7.8l19-43.9z"/><path fill="#414456" d="M13.4 141a10 10 0 0 1-.8 2.1c-.3.7-.7 1.3-1.3 1.8-.5.4-1 .8-1.7 1.1a6 6 0 0 1-2.4.4c-1.2 0-2.2-.3-3.1-.8a6.7 6.7 0 0 1-2.1-2c-.6-.9-1-1.9-1.2-2.9a13.4 13.4 0 0 1 0-6.3c.3-1 .7-2 1.2-2.7.6-.8 1.3-1.4 2.2-2 1-.4 2-.6 3.2-.6a6 6 0 0 1 2.3.4c.6.2 1.2.6 1.7 1.1.5.5 1 1 1.3 1.7l.7 2.1-2 .4-.5-1.5a5 5 0 0 0-.8-1.3 3.5 3.5 0 0 0-2.8-1.2 4 4 0 0 0-2.3.7c-.6.4-1 1-1.4 1.7-.3.7-.6 1.4-.7 2.2a13.8 13.8 0 0 0 0 4.5c0 .7.3 1.4.6 2 .3.8.8 1.4 1.4 2 .7.5 1.4.7 2.3.7a4 4 0 0 0 1.7-.3c.5-.2.9-.5 1.2-.9.4-.4.7-.8.9-1.3l.5-1.6 2 .4zm15.2 5.2v-8h-7.8v8h-2.1v-17h2.1v7.2h7.8v-7.1h2.1v16.9zm12.8-14.6l-2.6 8H44l-2.6-8zm7 14.6h-2.2l-1.7-5h-6.2l-1.5 5H35l5.4-16.9H43l5.4 16.9zm10.2-9.1l1.6-.1a3 3 0 0 0 1.3-.8c.3-.3.5-.6.6-1a3.4 3.4 0 0 0 0-2.5 2 2 0 0 0-1-1c-.3-.3-.7-.4-1-.5h-5.4v6h3.9zm3.8 9l-3-7.2h-4.7v7.3h-2.1v-16.9h6.2c.7 0 1.4 0 2 .2A4.6 4.6 0 0 1 64 132a4.7 4.7 0 0 1-.4 4.7 4 4 0 0 1-2.3 1.6l3.3 7.9h-2.2zm12.6.1h-2.1v-15h-4.8v-2h11.7v2H75zm20.1 0H84.2v-17h10.6v2h-8.5v5.3h6.8v1.7h-6.8v6.2h8.8zm10.8-9.1l1.6-.1a3 3 0 0 0 1.3-.8c.3-.3.5-.6.6-1a3.4 3.4 0 0 0 0-2.5 2 2 0 0 0-1-1c-.3-.3-.7-.4-1-.5H102v6h3.9zm3.8 9l-3-7.2H102v7.3h-2.1v-16.9h6.2c.7 0 1.4 0 2 .2a4.6 4.6 0 0 1 3.2 2.5 4.7 4.7 0 0 1-.4 4.7 4 4 0 0 1-2.3 1.6l3.3 7.9h-2.2zm18.4.1h-10.9v-17h10.6v2h-8.5v5.3h6.8v1.7h-6.8v6.2h8.8zm10.1-1.9c1 0 1.8-.1 2.6-.4.7-.3 1.4-.8 2-1.7.4-.6.7-1.4.9-2.2a10 10 0 0 0 0-4.9c-.3-.9-.7-1.6-1.3-2.3a4 4 0 0 0-1.9-1.4c-.7-.2-1.5-.3-2.3-.3H135v13.2h3zm-5.2-15h5.3l1.7.1 1.5.4a6.4 6.4 0 0 1 2.6 1.9c.7.8 1.2 1.8 1.5 2.8a11 11 0 0 1 0 6.2 9 9 0 0 1-1.3 2.8c-.6 1-1.4 1.6-2.3 2a7 7 0 0 1-3 .7h-6v-16.9zm32.8 8.5c.5 0 1 0 1.4-.2.5 0 .9-.3 1.3-.7l.7-1 .2-1.3c0-.6 0-1-.3-1.5a3 3 0 0 0-2-1.8h-4.7v6.5h3.5zm-5.6 8.7v-17h5.6l2.1.1c.7.2 1.3.5 2 1a5.7 5.7 0 0 1 1.7 4 5.3 5.3 0 0 1-1.5 3.6c-.6.5-1.2.9-2 1-.6.3-1.3.4-2 .4h-3.8v6.9h-2.1zm22.1-9.1c.6 0 1.1 0 1.6-.2.5 0 .9-.3 1.3-.8l.7-1a3.5 3.5 0 0 0-.1-2.6c-.2-.4-.5-.7-.9-1l-1.1-.5h-5.4v6h4zm3.9 9l-3.1-7.3h-4.7v7.4h-2v-17h6.2l2 .1a4.6 4.6 0 0 1 3.6 4.6c0 1-.3 2-.8 2.7a4 4 0 0 1-2.3 1.7l3.3 7.9h-2.2zm13.2-1.4c.9 0 1.6-.2 2.2-.7.6-.5 1.1-1 1.5-1.7a8 8 0 0 0 .7-2.4 13.5 13.5 0 0 0 0-4.7c-.1-.8-.4-1.6-.8-2.3-.3-.6-.8-1.2-1.5-1.6-.6-.4-1.3-.6-2-.6-1 0-1.8.2-2.4.6-.6.5-1.1 1-1.5 1.8-.3.7-.6 1.5-.7 2.3a14 14 0 0 0 0 4.7c.2.8.4 1.6.8 2.3a5 5 0 0 0 1.4 1.6c.7.5 1.4.7 2.3.7m0 1.7a6.2 6.2 0 0 1-5.3-2.7c-.6-.8-1-1.7-1.2-2.8a12.5 12.5 0 0 1 1.2-9.2c.5-.8 1.3-1.5 2.1-2 .9-.5 2-.8 3.1-.8a6.1 6.1 0 0 1 5.3 2.7 11.9 11.9 0 0 1 0 12 7 7 0 0 1-2.2 2c-.8.6-1.8.8-3 .8m12.1-.2v-17h10.2v1.8h-8.1v5.4h6.7v1.7h-6.7v8.1zm24.7 0h-10.9v-17h10.6v1.8h-8.5v5.4h6.8v1.7h-6.8v6.2h8.8zm5.8-5.1a4 4 0 0 0 1.8 2.7c.9.5 1.9.8 3 .8.6 0 1.1 0 1.7-.2.5-.1 1-.3 1.4-.6l.7-1 .3-1.2a2.3 2.3 0 0 0-.9-2l-.9-.5-1-.3-2.8-.7-1.7-.5c-.5-.2-1-.5-1.4-.9a4.4 4.4 0 0 1-1.4-3.1 4.2 4.2 0 0 1 1.7-3.6c.6-.4 1.2-.7 2-.8a8 8 0 0 1 2-.3c1.5 0 2.7.3 3.8 1 1 .7 1.8 1.8 2.2 3.2l-1.9.5c0-.5-.3-.9-.5-1.3l-1-1a4.8 4.8 0 0 0-2.6-.7 4.9 4.9 0 0 0-2.4.6 3 3 0 0 0-.8.9c-.3.3-.4.7-.4 1.2s0 .9.3 1.2c.1.3.4.5.6.7l1 .5c.4 0 .7.2 1.1.3l2.6.6 1.6.5 1.4.8a4.2 4.2 0 0 1 1.6 3.4 4.8 4.8 0 0 1-1.9 3.9c-.6.5-1.3.8-2 1l-2.4.2a7 7 0 0 1-4.2-1.2 7 7 0 0 1-2.6-3.6l2-.5zm17.1 0c.3 1.2 1 2.1 1.9 2.7.9.5 1.9.8 3 .8.6 0 1.1 0 1.7-.2.5-.1 1-.3 1.4-.6l.7-1 .3-1.2a2.3 2.3 0 0 0-.9-2l-.9-.5-1-.3-2.8-.7-1.7-.5c-.5-.2-1-.5-1.4-.9a4.4 4.4 0 0 1-1.4-3.1 4.2 4.2 0 0 1 1.7-3.6c.6-.4 1.2-.7 2-.8a8 8 0 0 1 2-.3c1.5 0 2.7.3 3.8 1 1 .7 1.8 1.8 2.2 3.2l-1.9.5c0-.5-.3-.9-.5-1.3l-1-1a4.8 4.8 0 0 0-2.6-.7 4.9 4.9 0 0 0-2.4.6 3 3 0 0 0-.8.9c-.3.3-.4.7-.4 1.2s0 .9.3 1.2c.1.3.4.5.6.7l1 .5c.4 0 .7.2 1.1.3l2.6.6 1.6.5 1.4.8a4.2 4.2 0 0 1 1.6 3.4 4.8 4.8 0 0 1-1.9 3.9c-.6.5-1.3.8-2 1l-2.4.2a7 7 0 0 1-4.2-1.2 7 7 0 0 1-2.6-3.6l2-.5zm16.4-12h2.1v17.1h-2.1zm14.4 15.6c.9 0 1.6-.2 2.2-.7.6-.5 1.1-1 1.5-1.7a8 8 0 0 0 .7-2.4 13.4 13.4 0 0 0 0-4.7c-.1-.8-.4-1.6-.8-2.3-.3-.6-.8-1.2-1.5-1.6-.6-.4-1.3-.6-2-.6-1 0-1.8.2-2.4.6-.6.5-1.1 1-1.5 1.8-.3.7-.6 1.5-.7 2.3a14 14 0 0 0 0 4.7c.2.8.4 1.6.8 2.3a5 5 0 0 0 1.4 1.6c.6.5 1.4.7 2.3.7m0 1.7a6 6 0 0 1-3.1-.7 6.5 6.5 0 0 1-2.2-2c-.6-.8-1-1.7-1.2-2.8a12.5 12.5 0 0 1 1.2-9.2c.5-.8 1.3-1.5 2.1-2 .9-.5 2-.8 3.1-.8a6.1 6.1 0 0 1 5.3 2.7 11.9 11.9 0 0 1 0 12 7 7 0 0 1-2.2 2c-.8.6-1.8.8-3 .8m24.3-.2h-2.1l-8.5-14.9v15h-1.7v-17.2h2.6l7.9 14v-14h1.8zm10.6-14.8l-2.6 8.2h5.1l-2.5-8.2zm6.8 14.8h-2.1l-1.7-5h-6.2l-1.5 5h-1.8l5.5-17h2.4l5.4 17zm14.2 0h-9.9v-17h2.1v15.1h7.8zM91.7 157.8l-2.6 8.2h5.2l-2.6-8.2zm6.9 14.8h-2.2l-1.7-5h-6.2l-1.4 5h-1.8l5.4-17h2.4l5.5 17zm15.9-5.3l-.8 2.2c-.4.7-.8 1.3-1.3 1.8s-1 .9-1.8 1.1c-.6.3-1.4.4-2.3.4-1.2 0-2.2-.2-3.1-.8a6.8 6.8 0 0 1-2.1-2 9 9 0 0 1-1.2-3 13.8 13.8 0 0 1 0-6.3c.3-1 .7-2 1.2-2.8a6.4 6.4 0 0 1 5.3-2.6 5.4 5.4 0 0 1 4 1.6c.6.4 1 1 1.3 1.7.4.6.6 1.4.8 2.1l-2 .4-.5-1.5a5 5 0 0 0-.8-1.3 3.5 3.5 0 0 0-2.8-1.2c-1 0-1.7.2-2.3.7-.6.4-1 1-1.4 1.7a8 8 0 0 0-.7 2.2 14.2 14.2 0 0 0 0 4.5c0 .8.3 1.5.6 2.1.3.8.8 1.4 1.4 2a4 4 0 0 0 4 .5c.4-.3.9-.6 1.2-1l.9-1.3.5-1.6 1.9.4zm17.2 0l-.8 2.2c-.4.7-.8 1.3-1.3 1.8s-1.1.9-1.8 1.1c-.7.3-1.4.4-2.3.4-1.2 0-2.3-.2-3.1-.8a6.8 6.8 0 0 1-2.1-2 9 9 0 0 1-1.3-3 13.8 13.8 0 0 1 0-6.3c.3-1 .8-2 1.3-2.8a6.4 6.4 0 0 1 5.3-2.6 5.4 5.4 0 0 1 4 1.6c.6.4 1 1 1.3 1.7l.8 2.1-2 .4-.5-1.5a5 5 0 0 0-.8-1.3 3.5 3.5 0 0 0-2.8-1.2c-1 0-1.7.2-2.3.7-.6.4-1 1-1.4 1.7-.3.7-.6 1.4-.7 2.2a14.1 14.1 0 0 0 0 4.5c0 .8.3 1.5.5 2.1.4.8.9 1.4 1.5 2a4 4 0 0 0 4 .5l1.2-1 .8-1.3c.3-.5.4-1 .6-1.6l1.9.4zm11.2 3.8c.9 0 1.6-.2 2.2-.7.6-.5 1.1-1 1.5-1.7a8 8 0 0 0 .7-2.4 13.5 13.5 0 0 0 0-4.7c-.1-.8-.4-1.6-.7-2.2-.4-.7-1-1.3-1.5-1.7-.7-.4-1.4-.6-2.2-.6-.9 0-1.7.2-2.3.6-.6.5-1 1-1.4 1.8-.4.7-.6 1.5-.8 2.3a14 14 0 0 0 0 4.7l.8 2.3a5 5 0 0 0 1.5 1.6c.6.5 1.3.7 2.2.7m0 1.7a6.2 6.2 0 0 1-5.3-2.7c-.5-.8-1-1.7-1.2-2.7a12.5 12.5 0 0 1 1.2-9.2 6.3 6.3 0 0 1 5.2-2.9 6 6 0 0 1 5.3 2.7 11.9 11.9 0 0 1 0 12 7 7 0 0 1-2.1 2c-.9.6-2 .8-3.1.8m23.7-6.5c0 .9 0 1.7-.2 2.5s-.5 1.5-1 2.2c-.6.7-1.3 1.1-2 1.4a9.2 9.2 0 0 1-5 0c-.8-.1-1.5-.5-2-1.2-.4-.3-.6-.7-.8-1.1a6.5 6.5 0 0 1-.5-2.4v-12.2h2v10.8a25.8 25.8 0 0 0 .1 1.7l.2.9.4.7c.1.3.3.5.6.7l.8.4a5.3 5.3 0 0 0 3.4 0 3 3 0 0 0 1.4-1c.4-.4.7-1 .7-1.6l.1-1.8v-10.8h1.8v10.8zm18.3 6.3h-2.1l-8.5-14.9v15h-1.7v-17.2h2.6l7.9 14v-14h1.8zm11.1 0h-2.1v-15.3h-4.8v-1.8h11.6v1.8H196zm12-14.8l-2.5 8.2h5.1l-2.5-8.2zm7 14.8h-2.2l-1.7-5H205l-1.5 5h-1.7l5.4-17h2.4l5.4 17zm16.4 0h-2l-8.6-14.9v15h-1.7v-17.2h2.6l8 14v-14h1.7zm11.1 0h-2.1v-15.3h-4.8v-1.8h11.6v1.8h-4.7zm10-5a5 5 0 0 0 1.9 2.6c.9.5 2 .8 3 .8.6 0 1.1 0 1.7-.2.5-.1 1-.3 1.4-.6.3-.3.6-.6.7-1l.3-1.2a2.3 2.3 0 0 0-.9-1.9 2 2 0 0 0-.9-.5l-1-.4-2.8-.7-1.6-.5a3 3 0 0 1-1.5-.9 4.4 4.4 0 0 1-1.4-3.1c0-.8.2-1.5.6-2.1.3-.6.7-1.1 1.2-1.5.5-.4 1.2-.6 1.8-.8a8 8 0 0 1 2.2-.3c1.4 0 2.6.3 3.7 1 1 .7 1.8 1.8 2.2 3.2l-1.9.5c0-.5-.3-.9-.5-1.3l-1-.9a4.9 4.9 0 0 0-2.6-.8 4.9 4.9 0 0 0-2.4.6 3 3 0 0 0-.8.9c-.3.3-.4.7-.4 1.2s.1.9.3 1.2l.7.7 1 .5 1 .3 2.6.6 1.6.5 1.4.8a4.2 4.2 0 0 1 1.6 3.4 4.8 4.8 0 0 1-1.9 3.9c-.6.5-1.3.8-2 1-.8.2-1.6.2-2.4.2-1.7 0-3.1-.4-4.2-1.1-1.1-.8-2-2-2.6-3.7l2-.4z"/></g></svg>