<?xml version="1.0" encoding="utf-8"?>
<!-- Generator: Adobe Illustrator 21.0.0, SVG Export Plug-In . SVG Version: 6.00 Build 0)  -->
<svg version="1.1" id="Layer_1" xmlns="http://www.w3.org/2000/svg" xmlns:xlink="http://www.w3.org/1999/xlink" x="0px" y="0px"
	 viewBox="0 0 395.4 76.6" style="enable-background:new 0 0 395.4 76.6;" xml:space="preserve">
<style type="text/css">
	.st0{fill:#65AAC1;}
	.st1{fill:#FFFFFF;}
	.st2{fill:#31354B;}
	.st3{fill:#509E38;}
</style>
<title>KMA-HRZ-CMYK</title>
<path class="st0" d="M185.8,0h47.6c8,0,14.5,6.5,14.5,14.5v47.6c0,8-6.5,14.5-14.5,14.5h-47.6c-8,0-14.5-6.5-14.5-14.5V14.5
	C171.3,6.5,177.8,0,185.8,0z"/>
<path class="st1" d="M226.1,54.2h-5.9l-3.2-7.6h-14.9l-3.2,7.6h-5.7l13.9-31.7h5.1L226.1,54.2z M209.6,29.1l-5.4,12.6H215
	L209.6,29.1z"/>
<path class="st2" d="M100.2,0h47.6c8,0,14.5,6.5,14.5,14.5v47.6c0,8-6.5,14.5-14.5,14.5h-47.6c-8,0-14.5-6.5-14.5-14.5V14.5
	C85.7,6.5,92.2,0,100.2,0z"/>
<path class="st1" d="M124,46.3h-0.2l-9.9-14.8V54h-5.4V22.6h5.9l9.6,14.9l9.6-14.9h5.9V54h-5.5V31.5L124,46.3z"/>
<path class="st3" d="M14.5,0h47.6c8,0,14.5,6.5,14.5,14.5v47.6c0,8-6.5,14.5-14.5,14.5H14.5C6.5,76.6,0,70.1,0,62.1V14.5
	C0,6.5,6.5,0,14.5,0z"/>
<path class="st1" d="M52.2,54h-6.7L34.8,39.9l-4.9,5V54h-5.5V22.6h5.5v15.8l15-15.8h6.8L38.6,36.1L52.2,54z"/>
<path class="st2" d="M268.9,19.3c-0.4,1.7-1.2,2.5-2.5,2.5c-1.8,0-2.9-1.6-2.9-4.5s1-4.5,2.6-4.5c1.4,0,2.1,0.7,2.5,2.3l0.1,0.4
	l1.9-0.6l-0.1-0.3c-0.6-2.4-2-3.7-4.3-3.7c-3,0-4.8,2.4-4.8,6.3s1.7,6.4,4.8,6.4c2.3,0,3.8-1.3,4.4-3.9l0.1-0.4l-1.9-0.4L268.9,19.3
	z"/>
<polygon class="st2" points="280.8,16.1 276,16.1 276,11.2 274,11.2 274,23.5 276,23.5 276,18 280.8,18 280.8,23.5 282.8,23.5 
	282.8,11.2 280.8,11.2 "/>
<path class="st2" d="M289.6,11.2l-3.8,12.3h2.1l1.1-3.6h3.6l1.1,3.6h2.1L292,11.2H289.6z M292.1,18h-2.5l1.3-4.5L292.1,18z"/>
<path class="st2" d="M307,14.6c0-2.2-1.5-3.4-4.2-3.4h-4.1v12.3h2v-5.3h2.1l2.3,5.3h2.2l-2.5-5.7C306.2,17.3,307.1,16,307,14.6z
	 M300.8,13h1.9c1.7,0,2.3,0.5,2.3,1.6c0,0.8-0.3,1.7-2.3,1.7h-2L300.8,13z"/>
<polygon class="st2" points="309.8,13 313.2,13 313.2,23.5 315.3,23.5 315.3,13 318.7,13 318.7,11.2 309.8,11.2 "/>
<polygon class="st2" points="329.8,21.6 323.8,21.6 323.8,18 327.9,18 327.9,16.1 323.8,16.1 323.8,13 329.5,13 329.5,11.2 
	321.8,11.2 321.8,23.5 329.8,23.5 "/>
<path class="st2" d="M335.1,18.2h2.1l2.3,5.3h2.2l-2.5-5.7c1.3-0.5,2.2-1.8,2.2-3.2c0-2.2-1.5-3.4-4.2-3.4H333v12.3h2L335.1,18.2z
	 M335.1,13h1.9c1.6,0,2.3,0.5,2.3,1.6c0,0.8-0.3,1.7-2.3,1.7h-2L335.1,13z"/>
<polygon class="st2" points="353.2,21.6 347.2,21.6 347.2,18 351.2,18 351.2,16.1 347.2,16.1 347.2,13 352.8,13 352.8,11.2 
	345.2,11.2 345.2,23.5 353.2,23.5 "/>
<path class="st2" d="M365.5,17.3c0-3.8-2.1-6.2-5.6-6.2h-3.5v12.3h3.4C363.3,23.5,365.5,21.1,365.5,17.3z M359.8,13
	c2.4,0,3.6,1.4,3.6,4.3s-1.2,4.4-3.7,4.4h-1.4V13H359.8z"/>
<path class="st2" d="M271.1,35.8c0-2.3-1.5-3.6-3.9-3.6h-4.4v12.3h2v-5.2h1.7C269.4,39.3,271.1,38,271.1,35.8z M266.6,37.5h-1.8V34
	h2.1c1.9,0,2.2,1,2.2,1.7C269,36.8,268.6,37.5,266.6,37.5z"/>
<path class="st2" d="M280.4,38.8c1.4-0.5,2.2-1.8,2.2-3.2c0-2.2-1.5-3.4-4.2-3.4h-4.1v12.3h2v-5.3h2.1l2.4,5.3h2.2L280.4,38.8z
	 M276.2,34h1.9c1.7,0,2.3,0.5,2.3,1.6c0,0.8-0.3,1.7-2.3,1.7h-2L276.2,34z"/>
<path class="st2" d="M290.5,44.6c3.1,0,4.9-2.3,4.9-6.3s-1.7-6.3-4.9-6.3s-4.8,2.3-4.8,6.3S287.4,44.6,290.5,44.6z M290.5,33.8
	c1.9,0,2.9,1.5,2.9,4.5s-1,4.5-2.9,4.5s-2.8-1.5-2.8-4.5S288.6,33.8,290.5,33.8z"/>
<polygon class="st2" points="300.9,39 305.1,39 305.1,37.1 300.9,37.1 300.9,34 306.5,34 306.5,32.1 298.9,32.1 298.9,44.5 
	300.9,44.5 "/>
<polygon class="st2" points="317.6,42.6 311.6,42.6 311.6,39 315.7,39 315.7,37.1 311.6,37.1 311.6,34 317.3,34 317.3,32.1 
	309.6,32.1 309.6,44.5 317.6,44.5 "/>
<path class="st2" d="M324.6,42.8c-1.3,0-2.4-0.9-2.7-2.1l-0.1-0.3l-1.9,0.7l0.2,0.4c0.7,1.5,1.8,3.2,4.5,3.2c4,0,4.3-2.9,4.3-3.8
	c0-2.3-2.2-3.1-4-3.8c-1.6-0.6-2.5-1-2.5-1.8c0-1.2,1-1.4,1.8-1.4c1.1-0.1,2.1,0.7,2.3,1.7l0.1,0.3l1.9-0.4l-0.1-0.4
	c-0.5-1.9-2.2-3.2-4.2-3.1c-2.2,0-3.9,1.4-3.9,3.3c0,2.2,2,2.9,3.8,3.6s2.7,1.1,2.7,2.2S325.9,42.8,324.6,42.8z"/>
<path class="st2" d="M336.5,37.1c-1.6-0.6-2.5-1-2.5-1.8c0-1.2,1-1.4,1.8-1.4c1.1-0.1,2.1,0.7,2.3,1.7l0.1,0.3l1.9-0.4l-0.1-0.4
	c-0.5-1.9-2.2-3.2-4.2-3.1c-2.2,0-3.9,1.4-3.9,3.3c0,2.2,2,2.9,3.8,3.6s2.8,1.1,2.8,2.2s-0.8,1.7-2.2,1.7c-1.3,0-2.4-0.9-2.7-2.1
	l-0.1-0.3l-1.9,0.7l0.2,0.4c0.7,1.5,1.8,3.2,4.5,3.2c4,0,4.3-2.9,4.3-3.8C340.5,38.6,338.3,37.7,336.5,37.1z"/>
<rect x="344.1" y="32.1" class="st2" width="2" height="12.3"/>
<path class="st2" d="M354.7,32c-3.1,0-4.9,2.3-4.9,6.3s1.8,6.3,4.9,6.3s4.9-2.3,4.9-6.3S357.8,32,354.7,32z M354.7,42.8
	c-1.9,0-2.9-1.5-2.9-4.5s1-4.5,2.9-4.5s2.9,1.5,2.9,4.5S356.6,42.8,354.7,42.8z"/>
<polygon class="st2" points="370,40.1 365.5,32.1 363.1,32.1 363.1,44.5 365,44.5 365,35.1 370.3,44.5 371.9,44.5 371.9,32.1 
	370,32.1 "/>
<path class="st2" d="M378.7,32.1l-3.8,12.3h2.1l1.1-3.6h3.6l1.1,3.6h2.1l-3.8-12.3H378.7z M381.2,39h-2.5l1.3-4.5L381.2,39z"/>
<polygon class="st2" points="389.9,42.6 389.9,32.1 387.9,32.1 387.9,44.5 395.4,44.5 395.4,42.6 "/>
<path class="st2" d="M265.3,53.1l-3.8,12.3h2.2l1.1-3.6h3.6l1.1,3.6h2.1l-3.8-12.3H265.3z M267.8,60h-2.5l1.3-4.5L267.8,60z"/>
<path class="st2" d="M280.7,61.3c-0.4,1.7-1.2,2.5-2.5,2.5c-1.9,0-2.9-1.6-2.9-4.5s1-4.5,2.6-4.5c1.4,0,2.1,0.7,2.5,2.3l0.1,0.4
	l1.9-0.6l-0.1-0.3c-0.6-2.4-2-3.7-4.3-3.7c-3,0-4.8,2.4-4.8,6.3s1.7,6.3,4.8,6.3c2.3,0,3.8-1.3,4.4-3.9l0.1-0.4l-1.9-0.4L280.7,61.3
	z"/>
<path class="st2" d="M292.6,61.3c-0.4,1.7-1.2,2.5-2.5,2.5c-1.8,0-2.9-1.6-2.9-4.5s1-4.5,2.6-4.5c1.4,0,2.1,0.7,2.5,2.3l0.1,0.4
	l1.9-0.6l-0.1-0.3c-0.6-2.4-2-3.7-4.3-3.7c-3,0-4.8,2.4-4.8,6.3s1.8,6.3,4.8,6.3c2.3,0,3.8-1.3,4.4-3.9l0.1-0.4l-1.8-0.4L292.6,61.3
	z"/>
<path class="st2" d="M302,53c-3.1,0-4.9,2.3-4.9,6.3s1.8,6.3,4.9,6.3s4.9-2.3,4.9-6.3S305.1,53,302,53z M302,63.8
	c-1.9,0-2.9-1.5-2.9-4.5s1-4.5,2.9-4.5s2.9,1.5,2.9,4.5S303.9,63.8,302,63.8z"/>
<path class="st2" d="M317.2,61.7c-0.2,1.3-1.4,2.2-2.7,2c-1.1-0.2-1.9-1-2-2v-8.6h-2v8.4c0,2.5,1.7,4,4.4,4s4.4-1.6,4.4-4v-8.4h-2
	L317.2,61.7z"/>
<polygon class="st2" points="330.4,61.1 325.8,53.1 323.4,53.1 323.4,65.4 325.3,65.4 325.3,56.1 330.6,65.4 332.3,65.4 332.3,53.1 
	330.4,53.1 "/>
<polygon class="st2" points="335.3,55 338.8,55 338.8,65.4 340.8,65.4 340.8,55 344.3,55 344.3,53.1 335.3,53.1 "/>
<path class="st2" d="M348.8,53.1L345,65.4h2.1l1.1-3.6h3.6l1.1,3.6h2.1l-3.8-12.3H348.8z M351.3,60h-2.6l1.3-4.5L351.3,60z"/>
<polygon class="st2" points="364.9,61.1 360.4,53.1 358,53.1 358,65.4 359.9,65.4 359.9,56.1 365.2,65.4 366.8,65.4 366.8,53.1 
	364.9,53.1 "/>
<polygon class="st2" points="369.9,55 373.4,55 373.4,65.4 375.4,65.4 375.4,55 378.9,55 378.9,53.1 369.9,53.1 "/>
<path class="st2" d="M386,58.1c-1.6-0.6-2.5-1-2.5-1.8c0-1.2,1-1.4,1.8-1.4c1.1-0.1,2.1,0.7,2.3,1.7l0.1,0.4l1.9-0.4l-0.1-0.4
	c-0.5-1.9-2.2-3.2-4.2-3.1c-2.2,0-3.9,1.4-3.9,3.3c0,2.2,2,2.9,3.8,3.6s2.8,1.1,2.8,2.2s-0.8,1.7-2.2,1.7c-1.3,0-2.4-0.9-2.7-2.1
	l-0.1-0.3L381,62l0.2,0.4c0.7,1.5,1.8,3.2,4.5,3.2c4,0,4.3-2.9,4.3-3.8C389.9,59.5,387.7,58.7,386,58.1z"/>
</svg>
