<svg xmlns="http://www.w3.org/2000/svg" width="756.1" height="127.3"><defs><clipPath id="a"><path d="M0 540h720V0H0v540z"/></clipPath></defs><g clip-path="url(#a)" transform="matrix(1.25 0 0 -1.25 -72.2 400.4)"><path fill="#60a24f" d="M159.6 237.6a19 19 0 0 0-19.1-19.1H76.8a19 19 0 0 0-19 19v63.7a19 19 0 0 0 19 19.1h63.7a19 19 0 0 0 19-19v-63.7z"/><path fill="#414456" d="M274.1 237.6a19 19 0 0 0-19-19.1h-63.7a19 19 0 0 0-19.1 19v63.7a19 19 0 0 0 19 19.1H255a19 19 0 0 0 19.1-19v-63.7z"/><path fill="#6eacc2" d="M388.7 237.6a19 19 0 0 0-19.1-19.1h-63.7a19 19 0 0 0-19 19v63.7a19 19 0 0 0 19 19.1h63.7a19 19 0 0 0 19-19v-63.7z"/><path fill="#fff" d="M92.5 287.4h7.3v-21l19.7 21h9l-17.3-17.9 18.1-23.7h-8.9l-14.2 18.7-6.4-6.6v-12h-7.3v41.5zm111.3 0h7.8l12.7-19.7 12.6 19.7h7.8v-41.6h-7.3v29.8L224.3 256h-.3l-13 19.5v-29.7h-7.2v41.6zm140.8-25.1l-7.2 16.7-7-16.7h14.2zm-10.4 25.4h6.7l18.3-41.9h-7.7l-4.2 10h-19.7l-4.2-10h-7.5l18.3 41.9z"/><path fill="#83848c" d="M423.1 291.5l-.8-2.3a7 7 0 0 0-1.4-1.8c-.5-.6-1.2-1-1.9-1.2-.7-.3-1.5-.5-2.5-.5-1.2 0-2.3.3-3.2.9-1 .5-1.7 1.3-2.3 2.1-.6 1-1 2-1.3 3a14.1 14.1 0 0 0 0 6.7c.3 1 .8 2 1.4 2.8.6.9 1.4 1.5 2.3 2 1 .5 2 .8 3.3.8 1 0 1.7-.2 2.4-.4.7-.3 1.4-.7 1.9-1.2.5-.6 1-1.1 1.3-1.8l.8-2.3-2-.4-.7 1.6-.8 1.4a3.7 3.7 0 0 1-3 1.2c-1 0-1.7-.2-2.3-.7a5 5 0 0 1-1.5-1.8c-.4-.7-.7-1.5-.8-2.3a14.5 14.5 0 0 1 0-4.7c0-.8.3-1.5.6-2.2.4-.8.9-1.4 1.5-2a4.2 4.2 0 0 1 4.2-.5c.5.3 1 .6 1.3 1l1 1.4c.2.5.4 1 .5 1.7l2-.5zM439 286v8.4h-8V286h-2.3v17.7h2.3v-7.4h8.2v7.4h2.2V286h-2.2zm13.7 15.3l-2.8-8.5h5.5l-2.7 8.5zm7.2-15.3h-2.2l-1.8 5.2h-6.6l-1.6-5.2H446l5.7 17.7h2.6L460 286zm10.9 9.5l1.6.1c.5.1 1 .4 1.5.9.3.3.5.6.6 1a3.6 3.6 0 0 1 0 2.7c-.2.4-.6.7-1 1a2 2 0 0 1-1.2.5l-1.2.1h-4.5v-6.3h4.2zm4-9.5l-3.2 7.7h-5V286h-2.2v17.7h6.7c.7 0 1.4 0 2-.2a4.9 4.9 0 0 0 3.4-2.6 5 5 0 0 0-.4-5 4.2 4.2 0 0 0-2.4-1.7l3.5-8.2h-2.4zm13.3 0h-2.2v15.8h-5v2H493v-2h-5V286zm21.2 0h-11.5v17.7H509v-1.9h-9v-5.6h7.2v-1.8H500v-6.5h9.3v-2zm11.4 9.5l1.7.1c.5.1 1 .4 1.4.9l.7 1a3.6 3.6 0 0 1-.1 2.7c-.2.4-.5.7-1 1-.3.3-.7.5-1.1.5l-1.3.1h-4.4v-6.3h4.1zm4-9.5l-3.2 7.7h-5V286h-2.1v17.7h6.6c.7 0 1.4 0 2.1-.2a4.9 4.9 0 0 0 3.3-2.6 5 5 0 0 0-.4-5 4.3 4.3 0 0 0-2.4-1.7l3.5-8.2h-2.3zm19.4 0h-11.4v17.7h11.2v-1.9h-9v-5.6h7.1v-1.8h-7v-6.5h9.2v-2zm10.7 1.9c1 0 2 .1 2.8.4a5 5 0 0 1 2 1.8c.5.7.8 1.5 1 2.3a10.5 10.5 0 0 1 0 5.2c-.3 1-.7 1.7-1.3 2.4a4 4 0 0 1-2 1.5c-.7.2-1.6.4-2.5.4h-3.3v-14h3.3zm-5.5 15.8h5.6l1.8-.1a6.8 6.8 0 0 0 4.3-2.4c.8-.9 1.4-1.9 1.7-3a11.6 11.6 0 0 0 0-6.5 8.6 8.6 0 0 0-3.8-5.1c-1-.4-2-.6-3.3-.6h-6.3v17.7zm-133.4-36c.5 0 1 0 1.5.2.5 0 .9.3 1.3.7.3.3.6.7.8 1.2l.2 1.3-.3 1.5a3 3 0 0 1-2.1 1.8l-1.3.1h-3.9v-6.8h3.8zm-6-9v17.7h6c.7 0 1.5 0 2.2-.2a4.5 4.5 0 0 0 3.4-2.9c.3-.7.4-1.5.4-2.2a5.4 5.4 0 0 0-1.5-3.8c-.6-.6-1.3-1-2-1.1a9 9 0 0 0-2.3-.3h-4v-7.2H410zm23.5 9.5l1.6.1c.5.1 1 .4 1.4.8.3.3.6.7.7 1.1a3.6 3.6 0 0 1 0 2.7l-1 1a2 2 0 0 1-1.2.5h-5.7v-6.2h4.2zm4-9.5l-3.3 7.6h-4.9v-7.6H427v17.7h6.6c.8 0 1.5 0 2.1-.2a4.9 4.9 0 0 0 3.4-2.6 5 5 0 0 0-.4-5 4.3 4.3 0 0 0-2.5-1.7l3.5-8.2h-2.3zm14 1.5c1 0 1.7.3 2.4.7.6.5 1.1 1.1 1.5 1.9.4.7.6 1.5.8 2.4a13.8 13.8 0 0 1 0 4.9 9 9 0 0 1-.8 2.3 5 5 0 0 1-1.6 1.8 4 4 0 0 1-2.3.6 4 4 0 0 1-2.4-.7 5 5 0 0 1-1.6-1.8l-.8-2.4a14.3 14.3 0 0 1 0-5c.2-.8.5-1.5.9-2.2.4-.8.9-1.3 1.5-1.8a4 4 0 0 1 2.4-.7m0-1.8a6.7 6.7 0 0 0-5.6 2.8c-.6.9-1 1.9-1.3 3a12.8 12.8 0 0 0 1.3 9.5c.6.9 1.3 1.6 2.3 2.1.9.6 2 .9 3.3.9a6.5 6.5 0 0 0 5.5-2.9 9 9 0 0 0 1.3-2.8 12.1 12.1 0 0 0-1.3-9.5 7.3 7.3 0 0 0-2.3-2.2 6 6 0 0 0-3.2-.9m12.8.3v17.7H475v-2h-8.6V269h7.2v-2h-7.2v-8.4h-2.2zm26.1 0h-11.5v17.7h11.3v-2h-9V269h7.1v-2h-7.1v-6.5h9.2v-2zm6.1 5.3c.4-1.3 1-2.2 2-2.8 1-.6 2-.9 3.2-.9a5 5 0 0 1 1.7.2c.6.1 1.1.4 1.5.7.4.3.6.6.8 1 .2.4.3.8.3 1.3a2.4 2.4 0 0 1-1 2l-.9.5-1.1.4-3 .7-1.7.5c-.5.2-1 .5-1.5 1a3 3 0 0 0-1 1.4 4 4 0 0 0-.4 1.8c0 .8.1 1.6.5 2.2.3.6.8 1.1 1.3 1.5a7.8 7.8 0 0 0 4.2 1.2 7 7 0 0 0 4-1.1 6 6 0 0 0 2.3-3.3l-2-.5c-.1.5-.3.9-.6 1.3a4 4 0 0 1-1 1 5.1 5.1 0 0 1-2.7.8 5.3 5.3 0 0 1-2.6-.7 3 3 0 0 1-.9-.9c-.2-.3-.3-.7-.3-1.2s0-1 .2-1.2c.2-.4.4-.6.7-.8l1-.5 1.3-.3 2.6-.7 1.7-.5 1.6-.8a4.3 4.3 0 0 0 1.6-3.6 5 5 0 0 0-2-4c-.6-.5-1.4-.8-2.2-1l-2.4-.3c-1.8 0-3.3.4-4.5 1.3-1.2.8-2 2-2.7 3.8l2 .4zm18.2 0c.4-1.3 1-2.2 2-2.8.9-.6 2-.9 3.2-.9a5 5 0 0 1 1.7.2c.6.1 1.1.4 1.5.7.4.3.6.6.8 1 .2.4.3.8.3 1.3a2.4 2.4 0 0 1-1 2l-.9.5-1.1.4-3 .7-1.7.5c-.5.2-1 .5-1.5 1a3 3 0 0 0-1 1.4 4 4 0 0 0-.4 1.8c0 .8.1 1.6.5 2.2.3.6.8 1.1 1.3 1.5a7.8 7.8 0 0 0 4.2 1.2 7 7 0 0 0 4-1.1 6 6 0 0 0 2.3-3.3l-2-.5c-.1.5-.3.9-.6 1.3a4 4 0 0 1-1 1 5.1 5.1 0 0 1-2.7.8 5.3 5.3 0 0 1-2.6-.7 3 3 0 0 1-.9-.9c-.2-.3-.3-.7-.3-1.2s0-1 .2-1.2c.2-.4.4-.6.7-.8l1-.5 1.3-.3 2.6-.7 1.7-.5c.6-.2 1.1-.5 1.5-.8a4.3 4.3 0 0 0 1.7-3.6 5 5 0 0 0-2-4c-.6-.5-1.4-.8-2.2-1l-2.4-.3c-1.8 0-3.3.4-4.5 1.3a7 7 0 0 0-2.7 3.8l2 .4zm17.4 12.4h2.2v-17.7h-2.3v17.7zm15.1-16.2a4 4 0 0 1 3.9 2.6c.4.7.7 1.5.8 2.4a13.7 13.7 0 0 1 0 4.9c-.1.8-.4 1.6-.8 2.3a5 5 0 0 1-1.6 1.8 4 4 0 0 1-2.2.6 4 4 0 0 1-2.5-.7 5 5 0 0 1-1.5-1.8c-.4-.7-.7-1.5-.8-2.4a14.3 14.3 0 0 1 0-5l.8-2.2c.4-.8 1-1.3 1.6-1.8a4 4 0 0 1 2.3-.7m0-1.8c-1.2 0-2.3.3-3.3.8a7 7 0 0 0-2.2 2c-.6.9-1 1.9-1.4 3a12.8 12.8 0 0 0 1.3 9.5c.6.9 1.4 1.6 2.3 2.1 1 .6 2 .9 3.3.9a6.5 6.5 0 0 0 5.5-2.9c.6-.8 1-1.8 1.4-2.8a12.2 12.2 0 0 0-1.3-9.5 7.3 7.3 0 0 0-2.3-2.2 6 6 0 0 0-3.3-.9m25.8.3h-2.2l-9 15.4v-15.4h-1.9v17.7h2.8L571 262v14.4h1.9v-17.7zM584 274l-2.7-8.5h5.5L584 274zm7.3-15.3H589l-1.7 5.1h-6.6l-1.6-5.1h-1.8l5.7 17.7h2.5l5.8-17.7zm15 0H596v17.7h2.2v-15.8h8.2v-2zm-191-12l-2.8-8.5h5.5l-2.8 8.5zm7.2-15.3h-2.3l-1.7 5.1h-6.6l-1.6-5.1h-1.8l5.7 17.7h2.6l5.7-17.7zm16.9 5.5c-.2-.9-.5-1.6-.9-2.3a7 7 0 0 0-1.3-1.9 6.7 6.7 0 0 0-4.4-1.6c-1.3 0-2.4.3-3.3.8a7 7 0 0 0-2.2 2.2c-.6.9-1 1.9-1.3 3a14.1 14.1 0 0 0 0 6.6 7.8 7.8 0 0 0 3.7 4.9c.9.5 2 .7 3.3.7.9 0 1.7 0 2.4-.4.7-.3 1.3-.7 1.8-1.2.6-.5 1-1 1.4-1.8l.8-2.2-2.1-.4-.6 1.6-.8 1.3a3.7 3.7 0 0 1-3 1.3c-1 0-1.8-.2-2.4-.7a5 5 0 0 1-1.5-1.8c-.4-.7-.6-1.5-.8-2.3a14.5 14.5 0 0 1 0-4.7c.1-.8.4-1.5.6-2.2.4-.8 1-1.5 1.6-2 .7-.6 1.5-.8 2.4-.8.7 0 1.3 0 1.8.3.5.2 1 .6 1.3 1l.9 1.4.6 1.6 2-.4zm18.2 0c-.2-.9-.5-1.6-.9-2.3a5.7 5.7 0 0 0-3.2-3c-.7-.4-1.6-.5-2.5-.5-1.3 0-2.4.3-3.3.8a7 7 0 0 0-2.2 2.2c-.6.9-1 1.9-1.3 3a14.1 14.1 0 0 0 0 6.6c.3 1.1.7 2 1.3 2.9.7.8 1.4 1.5 2.3 2 1 .5 2 .7 3.4.7.9 0 1.7 0 2.4-.4.7-.3 1.3-.7 1.8-1.2.6-.5 1-1 1.4-1.8l.8-2.2-2.1-.4-.6 1.6-.8 1.3a3.7 3.7 0 0 1-3 1.3c-1 0-1.8-.2-2.4-.7a5 5 0 0 1-1.5-1.8c-.4-.7-.6-1.5-.8-2.3a14.4 14.4 0 0 1 0-4.7c.1-.8.4-1.5.6-2.2.4-.8 1-1.5 1.6-2 .7-.6 1.5-.8 2.4-.8.7 0 1.3 0 1.8.3.5.2 1 .6 1.3 1l.9 1.4.6 1.6 2-.4zm11.9-4c.9 0 1.7.3 2.3.7a5 5 0 0 1 1.6 1.9l.8 2.4a13.8 13.8 0 0 1 0 4.9c-.2.8-.5 1.6-.9 2.3a5 5 0 0 1-1.6 1.8 4 4 0 0 1-2.2.6 4 4 0 0 1-2.4-.7 5 5 0 0 1-1.6-1.8c-.4-.7-.6-1.5-.8-2.4a14.4 14.4 0 0 1 0-5c.2-.8.5-1.6.9-2.3.4-.7.9-1.2 1.5-1.7a4 4 0 0 1 2.4-.7m0-1.8a6.7 6.7 0 0 0-5.6 2.8 9 9 0 0 0-1.3 3 12.8 12.8 0 0 0 1.3 9.5 6.3 6.3 0 0 0 5.6 3 6.5 6.5 0 0 0 5.5-2.9c.5-.8 1-1.8 1.3-2.8a12.1 12.1 0 0 0-1.3-9.6 7.3 7.3 0 0 0-2.3-2.1 6 6 0 0 0-3.2-.9m25 6.8c0-1 0-1.8-.2-2.6a4.9 4.9 0 0 0-3.2-3.8 10.3 10.3 0 0 0-5.2-.1c-.9.3-1.6.7-2.2 1.4l-.8 1.2a6.6 6.6 0 0 0-.6 2.5v12.6h2.2v-11.2a26.3 26.3 0 0 1 .1-1.8l.2-.9a2.9 2.9 0 0 1 1-1.4l1-.5a5.7 5.7 0 0 1 3.6 0c.6.3 1 .6 1.4 1 .4.5.7 1 .8 1.7v13.1h2v-11.2zm19.5-6.5h-2.3l-9 15.4v-15.4H501V249h2.8l8.4-14.5V249h1.8v-17.7zm11.7 0h-2.3v15.8h-5v1.9h12.3v-2h-5v-15.7zm12.8 15.3l-2.7-8.5h5.4l-2.7 8.5zm7.3-15.3h-2.3l-1.8 5.1h-6.6l-1.5-5.1h-1.9l5.7 17.7h2.6l5.8-17.7zm17.4 0H561l-9 15.4v-15.4h-1.8V249h2.8l8.4-14.5V249h1.8v-17.7zm11.8 0h-2.3v15.8h-5v1.9H580v-2h-5v-15.7zm10.6 5.2c.3-1.2 1-2.1 2-2.7.9-.6 2-.9 3.2-.9a5 5 0 0 1 1.7.2c.6.1 1 .4 1.5.7.3.2.6.6.8 1 .2.4.3.8.3 1.3a2.4 2.4 0 0 1-1 2l-1 .5-1 .4-3 .7-1.7.5-1.5.9a3 3 0 0 0-1 1.5c-.3.6-.4 1.1-.4 1.8 0 .8.1 1.5.5 2.2.3.6.8 1 1.3 1.5.6.4 1.2.7 2 .9.7.2 1.4.2 2.2.2a7 7 0 0 0 3.9-1 6 6 0 0 0 2.4-3.3l-2-.5c-.1.4-.3.9-.6 1.3a4 4 0 0 1-1 1 5.2 5.2 0 0 1-2.8.8 5.3 5.3 0 0 1-2.5-.7 2 2 0 0 1-.9-.9c-.2-.3-.4-.7-.4-1.2s.1-1 .3-1.3l.7-.7c.3-.3.7-.4 1-.5l1.2-.3 2.7-.7 1.7-.5c.6-.2 1-.5 1.5-.9a4.3 4.3 0 0 0 1.7-3.5 5 5 0 0 0-2-4c-.7-.5-1.4-.8-2.2-1l-2.4-.3c-1.9 0-3.4.4-4.5 1.2a7.6 7.6 0 0 0-2.7 3.9l2 .4zm37.6-5.2h-10.4V249h2.2v-15.8h8.2v-2zm8.3 0h-2.3v15.8h-5v1.9h12.3v-2h-5v-15.7zm15.2 1.9c1 0 2 .1 2.7.4a6 6 0 0 1 3.1 4.1 10.5 10.5 0 0 1 0 5.2 7 7 0 0 1-1.3 2.4 4 4 0 0 1-2 1.5c-.8.2-1.6.3-2.5.3h-3.3v-14h3.3zm-5.5 15.8h5.6l1.8-.1 1.6-.4a6.8 6.8 0 0 0 2.7-2 8 8 0 0 0 1.6-3 11.6 11.6 0 0 0 .1-6.5c-.3-1-.8-2-1.4-3-.7-1-1.5-1.6-2.5-2-.9-.5-2-.7-3.2-.7h-6.3V249zm21.4-17.7h-2.9v2.9h3v-3z"/></g></svg>