<?xml version="1.0" standalone="no"?>
<!DOCTYPE svg PUBLIC "-//W3C//DTD SVG 20010904//EN"
 "http://www.w3.org/TR/2001/REC-SVG-20010904/DTD/svg10.dtd">
<svg version="1.0" xmlns="http://www.w3.org/2000/svg"
 width="320.000000pt" height="320.000000pt" viewBox="0 0 320.000000 320.000000"
 preserveAspectRatio="xMidYMid meet">
<metadata>
Created by potrace 1.11, written by Peter Selinger 2001-2013
</metadata>
<g transform="translate(0.000000,320.000000) scale(0.100000,-0.100000)"
fill="#000000" stroke="none">
<path d="M503 3189 c-184 -31 -356 -157 -438 -320 -68 -135 -65 -70 -65 -1272
0 -1211 -4 -1144 68 -1282 49 -93 154 -198 247 -247 138 -72 71 -68 1280 -68
1209 0 1143 -3 1279 68 135 71 239 194 293 347 l28 80 0 1100 0 1100 -28 82
c-63 185 -205 327 -392 391 l-80 27 -1070 1 c-588 1 -1093 -2 -1122 -7z m-183
-1396 l0 -198 98 100 c53 55 139 144 191 198 l94 98 78 -3 77 -3 -160 -168
-161 -168 78 -102 c43 -56 121 -157 172 -224 l94 -123 -83 0 -83 1 -130 174
c-71 96 -134 174 -140 174 -5 1 -35 -25 -67 -56 l-58 -57 0 -113 0 -113 -65 0
-65 0 0 390 0 390 65 0 65 0 0 -197z m1153 12 c66 -102 122 -183 125 -181 4 2
59 85 122 185 l115 180 73 1 72 0 0 -395 0 -395 -65 0 -65 0 0 280 c0 154 -3
280 -7 280 -5 0 -62 -81 -127 -180 -65 -99 -120 -180 -122 -180 -2 0 -59 82
-126 183 l-123 182 -3 -282 -2 -283 -65 0 -65 0 0 395 0 395 73 0 72 -1 118
-184z m1400 -156 c82 -187 159 -365 173 -395 l24 -54 -73 0 -73 0 -39 95 -38
95 -187 0 -187 0 -43 -95 -43 -95 -69 0 c-38 0 -67 3 -65 8 3 4 76 169 162
367 87 198 164 372 171 388 14 25 19 27 77 27 l62 0 148 -341z"/>
<path d="M2588 1668 l-65 -153 130 -3 c71 -1 132 0 135 2 5 6 -114 285 -127
299 -4 4 -37 -61 -73 -145z"/>
</g>
</svg>
